<svg width="75" height="37" viewBox="0 0 75 37" fill="none" xmlns="http://www.w3.org/2000/svg">
<path d="M1.90012 10.0754C-0.599876 9.67535 -0.299876 6.37535 0.900124 4.17535C1.90012 2.37535 4.00012 0.57535 6.10012 0.77535C9.30012 0.97535 9.60012 4.57535 6.40012 4.27535C5.10012 4.07535 4.00012 5.07535 3.60012 6.27535C5.00012 6.07535 6.30012 4.17535 7.60012 4.67535C8.20012 4.97535 8.50012 5.77535 9.00012 6.17535C9.30012 6.47535 9.80012 6.47535 10.2001 6.67535C11.4001 7.27535 10.8001 9.17535 9.50012 9.67535C8.50012 10.0753 7.60012 8.67535 6.50012 8.57535C6.20012 8.57535 5.30012 9.17535 5.00012 9.27535C4.10012 9.87535 2.90012 10.1754 1.90012 10.0754Z" fill="black"/>
<path d="M12.9001 9.97535C12.3001 9.17535 12.5001 8.07535 13.4001 7.67535C13.9001 7.47535 14.5001 7.57535 15.1001 7.47535C15.6001 7.37535 15.2001 6.67535 14.8001 6.37535C14.1001 5.87535 13.2001 5.57535 12.7001 4.87535C11.2001 2.57535 14.0001 -1.02465 17.6001 0.27535C18.4001 0.57535 19.3001 1.37535 19.0001 2.17535C18.6001 3.37535 17.2001 3.97535 16.5001 2.97535C16.3001 2.67535 15.7001 3.37535 15.8001 3.77535C16.0001 4.27535 17.7001 5.37535 18.0001 5.77535C19.3001 7.27535 18.5001 9.37535 16.7001 10.1754C15.6001 10.6754 13.7001 10.9754 12.9001 9.97535Z" fill="black"/>
<path d="M24.1001 14.1753C24.0001 13.8753 24.0001 13.4753 24.0001 13.1753C24.0001 12.6753 24.2001 12.2754 24.3001 11.7754C24.8001 9.97535 25.6001 8.17535 26.1001 6.37535C25.6001 6.77535 25.1001 7.17535 24.5001 7.17535C24.0001 7.17535 23.4001 6.97535 23.0001 6.57535C22.5001 6.17535 22.2001 5.47535 21.8001 4.87535C21.4001 4.17535 20.9001 3.47535 20.6001 2.67535C20.5001 2.47535 20.5001 2.27535 20.5001 2.07535C20.5001 1.37535 21.3001 0.47535 21.9001 0.27535C22.4001 0.0753504 22.9001 0.17535 23.3001 0.47535C23.5001 0.67535 23.7001 0.87535 23.8001 1.17535C24.1001 1.67535 24.3001 2.27535 24.6001 2.77535C24.8001 3.07535 25.1001 3.37535 25.4001 3.37535C26.0001 3.37535 26.7001 1.97535 27.0001 1.37535C27.2001 0.97535 27.4001 0.57535 27.8001 0.37535C28.1001 0.17535 28.6001 0.17535 29.0001 0.17535C29.2001 0.17535 30.0001 0.57535 30.2001 0.77535C30.4001 0.97535 30.5001 1.37535 30.4001 1.67535C30.3001 2.67535 30.0001 3.57535 29.7001 4.57535C29.3001 5.77535 28.9001 6.87535 28.5001 8.07535C28.1001 9.37535 27.9001 10.8754 27.7001 12.2754C27.6001 12.8754 27.5001 13.5754 27.2001 14.0754C27.0001 14.4754 26.6001 14.7753 26.2001 14.8753C25.6001 15.0753 24.4001 14.9753 24.1001 14.1753Z" fill="black"/>
<path d="M33.3001 10.0754C33.0001 9.97535 32.6001 9.77535 32.4001 9.47535C32.1001 9.07535 32.1001 8.47535 32.1001 7.97535C32.1001 7.07535 32.3001 6.17535 32.3001 5.17535C32.3001 4.27535 32.3001 3.37535 32.2001 2.47535C32.2001 2.07535 32.2001 1.57535 32.5001 1.17535C32.7001 0.97535 33.0001 0.77535 33.3001 0.57535C33.6001 0.47535 34.0001 0.37535 34.3001 0.37535C34.8001 0.37535 35.2001 0.57535 35.6001 0.87535C35.7001 0.97535 35.8001 1.17535 35.9001 1.27535C36.1001 1.67535 36.0001 2.07535 36.0001 2.37535C36.5001 1.97535 37.0001 1.57535 37.5001 1.27535C38.0001 0.97535 38.6001 0.77535 39.1001 0.97535C39.7001 1.17535 40.2001 1.57535 40.5001 2.07535C41.3001 3.07535 41.8001 4.27535 42.4001 5.37535C42.7001 5.97535 43.1001 6.47535 43.5001 7.07535C43.6001 7.37535 43.7001 7.67535 43.7001 7.97535C43.7001 8.27535 43.6001 8.47535 43.5001 8.67535C43.3001 9.07535 42.9001 9.27535 42.6001 9.57535C42.0001 9.97535 41.3001 9.97535 40.6001 9.67535C40.3001 9.47535 40.1001 9.27535 39.9001 8.97535C39.3001 8.07535 39.1001 6.97535 38.7001 6.07535C38.5001 5.67535 38.2001 4.87535 37.7001 4.97535C37.4001 4.97535 37.0001 5.57535 36.9001 5.87535C36.5001 6.77535 36.2001 7.77535 35.8001 8.77535C35.6001 9.27535 35.4001 9.77535 34.9001 9.97535C34.4001 10.1754 33.9001 10.1754 33.3001 10.0754Z" fill="black"/>
<path d="M46.6001 9.27535C46.0001 8.97535 45.5001 8.47535 45.2001 7.87535C44.9001 7.17535 44.9001 6.37535 45.1001 5.67535C45.4001 4.67535 46.0001 3.67535 46.7001 2.97535C47.3001 2.37535 48.0001 1.97535 48.8001 1.67535C49.6001 1.27535 50.6001 1.07535 51.5001 1.07535C52.0001 1.07535 52.6001 1.17535 53.0001 1.37535C53.7001 1.77535 54.0001 2.77535 53.7001 3.47535C53.5001 3.87535 53.3001 4.17535 52.9001 4.37535C52.7001 4.47535 52.4001 4.57535 52.2001 4.57535C52.0001 4.57535 51.8001 4.47535 51.5001 4.47535H51.3001C51.3001 4.47535 51.2001 4.47535 51.1001 4.47535C50.6001 4.57535 50.1001 4.67535 49.6001 4.87535C49.3001 4.97535 49.0001 5.17535 48.8001 5.37535C48.4001 5.77535 48.3001 6.37535 48.7001 6.57535C48.9001 6.67535 49.0001 6.67535 49.2001 6.67535C50.2001 6.67535 51.1001 6.27535 52.1001 6.17535C52.4001 6.17535 52.8001 6.17535 53.1001 6.37535C53.3001 6.47535 53.5001 6.67535 53.6001 6.87535C53.9001 7.47535 53.9001 8.27535 53.6001 8.77535C53.4001 9.07535 53.1001 9.27535 52.8001 9.47535C52.2001 9.77535 51.5001 9.97535 50.8001 10.0754C49.5001 10.1754 47.9001 9.97535 46.6001 9.27535Z" fill="black"/>
<path d="M21.5001 25.9753C19.0001 25.5753 19.3001 22.2754 20.5001 20.0754C21.5001 18.2754 23.6001 16.4754 25.7001 16.6754C28.9001 16.9754 29.1001 20.5754 25.9001 20.1754C24.6001 19.9754 23.5001 20.9754 23.2001 22.1754C24.6001 21.9754 25.9001 20.0754 27.2001 20.5754C27.8001 20.8754 28.1001 21.5753 28.6001 22.0753C28.9001 22.3753 29.4001 22.3753 29.8001 22.5753C31.0001 23.1753 30.4001 25.0753 29.1001 25.5753C28.1001 25.9753 27.2001 24.5753 26.1001 24.4753C25.8001 24.4753 24.9001 25.0754 24.6001 25.1754C23.7001 25.7754 22.6001 26.1753 21.5001 25.9753Z" fill="black"/>
<path d="M32.6001 25.4754C32.1001 24.8754 32.0001 23.9754 32.0001 23.1754C32.0001 21.2754 31.7001 17.3754 33.4001 16.4754C34.3001 16.0754 35.5001 16.1754 35.9001 17.0754C36.4001 18.1754 34.9001 21.0754 35.6001 21.5754C36.1001 21.7754 37.4001 19.0754 37.8001 18.7754C38.4001 18.2754 39.3001 17.8754 39.9001 18.3754C40.7001 19.1754 40.5001 20.6754 41.3001 21.4754C42.0001 22.0754 42.9001 21.5754 43.1001 20.7754C43.3001 19.7754 43.0001 17.0754 43.9001 16.5754C45.8001 15.5754 46.7001 17.9754 46.5001 20.1754C46.4001 21.6754 46.1001 23.1753 45.3001 24.3753C43.4001 27.2754 39.6001 25.9754 38.0001 22.9754C36.5001 24.9754 34.1001 27.5754 32.6001 25.4754Z" fill="black"/>
<path d="M49.8001 25.9753C47.3001 25.5753 47.6001 22.2754 48.8001 20.0754C49.8001 18.2754 51.9001 16.4754 54.0001 16.6754C57.2001 16.9754 57.4001 20.5754 54.2001 20.1754C52.9001 19.9754 51.8001 20.9754 51.5001 22.1754C52.9001 21.9754 54.2001 20.0754 55.5001 20.5754C56.1001 20.8754 56.4001 21.5753 56.9001 22.0753C57.2001 22.3753 57.7001 22.3753 58.1001 22.5753C59.3001 23.1753 58.7001 25.0753 57.4001 25.5753C56.4001 25.9753 55.5001 24.5753 54.4001 24.4753C54.1001 24.4753 53.2001 25.0754 52.9001 25.1754C52.1001 25.7754 50.9001 26.1753 49.8001 25.9753Z" fill="black"/>
<path d="M69.0001 28.3753C68.4001 27.7753 68.3001 26.7754 68.2001 25.9754C68.0001 24.4754 68.0001 22.9754 68.1001 21.4754C68.1001 21.1754 68.1001 20.8754 68.2001 20.5754C67.9001 20.5754 67.5001 20.6754 67.1001 20.4754C66.9001 20.3754 66.7001 20.2754 66.6001 20.0754C66.4001 19.7754 66.4001 19.3754 66.3001 18.9754C66.3001 18.4754 66.4001 17.8754 66.7001 17.5754C67.0001 17.3754 67.4001 17.2753 67.7001 17.2753C67.9001 17.2753 68.2001 17.2754 68.4001 17.0754C68.5001 16.9754 68.5001 16.7753 68.5001 16.7753C68.7001 16.0753 68.7001 15.3754 68.8001 14.5754C68.8001 14.2754 68.9001 13.9754 69.1001 13.7754C69.6001 13.1754 70.7001 13.1754 71.4001 13.5754C71.6001 13.6754 71.8001 13.8754 72.0001 14.0754C72.1001 14.2754 72.1001 14.5754 72.1001 14.7754C72.0001 15.4754 71.9001 16.2754 71.9001 16.9754V17.2753C72.0001 17.3753 72.1001 17.3754 72.3001 17.3754C72.8001 17.3754 73.3001 17.3754 73.7001 17.6754C74.2001 18.0754 74.4001 19.0754 74.1001 19.6754C73.9001 20.0754 73.7001 20.3754 73.3001 20.4754C73.0001 20.5754 72.6001 20.6754 72.3001 20.5754C72.2001 20.5754 71.8001 20.4754 71.6001 20.5754L71.5001 20.7754C71.5001 20.9754 71.4001 21.2754 71.4001 21.4754C71.4001 22.9754 71.5001 24.4754 71.8001 25.8753C71.9001 26.3753 72.1001 26.8753 72.1001 27.3753C72.1001 27.7753 71.9001 28.1754 71.6001 28.4754C70.9001 29.1754 69.7001 29.1753 69.0001 28.3753Z" fill="black"/>
<path d="M64.1001 19.4754C64.0001 19.0754 63.9001 18.7754 63.7001 18.4754C63.5001 18.2754 63.3001 18.1754 63.0001 18.1754C62.4001 18.1754 61.7001 18.2754 61.3001 18.5754C61.1001 18.7754 60.9001 19.1754 60.9001 19.4754C60.9001 20.1754 60.9001 20.7754 60.9001 21.4754C60.9001 22.1754 60.9001 22.9754 60.9001 23.6754C60.9001 24.2754 60.9001 24.8754 61.0001 25.4754C61.0001 25.6754 61.2001 25.9754 61.3001 26.1754C61.8001 26.5754 63.0001 26.5753 63.6001 26.2753C63.8001 26.1753 63.9001 26.0753 64.0001 25.8753C64.2001 25.5753 64.2001 25.1753 64.3001 24.7753C64.4001 23.5753 64.3001 22.2754 64.2001 21.0754C64.2001 20.4754 64.2001 19.9754 64.1001 19.4754Z" fill="black"/>
<path d="M66.8001 10.1753C67.0001 10.0753 67.1001 10.1753 67.2001 10.3753L67.9001 12.4754C68.0001 12.6754 67.9001 12.7753 67.7001 12.8753L64.5001 13.9754C64.3001 14.0754 64.2001 13.9754 64.1001 13.7754L64.0001 13.2754L63.6001 13.3753L63.9001 14.1754C64.2001 14.9754 63.8001 15.8753 63.1001 16.2753L63.3001 16.7753C63.4001 16.9753 63.3001 17.2753 63.0001 17.3753C62.8001 17.4753 62.5001 17.2754 62.4001 17.0754L62.2001 16.5754C61.4001 16.6754 60.6001 16.1753 60.3001 15.3753L60.0001 14.5754L59.6001 14.6754L59.8001 15.1754C59.9001 15.3754 59.8001 15.4754 59.6001 15.5754L56.4001 16.6754C56.2001 16.7754 56.1001 16.6754 56.0001 16.4754L55.3001 14.3753C55.2001 14.1753 55.3001 14.0754 55.5001 13.9754L58.7001 12.8753C58.9001 12.7753 59.0001 12.8754 59.1001 13.0754L59.3001 13.5754L59.8001 13.4754L59.5001 12.4754C59.4001 12.2754 59.6001 11.9753 59.8001 11.8753L60.7001 11.5754L60.5001 11.0754C59.5001 11.1754 58.6001 10.5753 58.3001 9.67535C58.3001 9.57535 58.3001 9.47535 58.3001 9.27535C58.4001 9.17535 58.4001 9.07535 58.6001 9.07535L59.8001 8.67535L59.6001 8.07535C59.3001 7.97535 59.0001 7.77535 58.9001 7.47535C58.7001 6.97535 59.0001 6.47535 59.5001 6.37535C60.0001 6.17535 60.5001 6.47535 60.6001 6.97535C60.7001 7.27535 60.6001 7.67535 60.4001 7.87535L60.6001 8.47535L61.8001 8.07535C61.9001 8.07535 62.0001 8.07535 62.1001 8.07535C62.2001 8.17535 62.3001 8.27535 62.3001 8.37535C62.6001 9.37535 62.2001 10.3753 61.3001 10.8753L61.5001 11.3753L62.4001 11.0754C62.6001 10.9754 62.9001 11.1753 63.0001 11.3753L63.3001 12.3753L63.7001 12.2754L63.5001 11.7754C63.4001 11.5754 63.5001 11.4753 63.7001 11.3753L66.8001 10.1753Z" fill="black"/>
<path d="M9.10012 28.4754C8.80012 28.2754 8.50012 27.7753 8.50012 27.3753C8.40012 26.8753 8.60012 26.2753 8.80012 25.7753C9.00012 25.1753 9.40012 24.5754 9.70012 23.9754C10.4001 22.6754 11.0001 21.3754 11.7001 19.9754C12.4001 18.5754 13.1001 17.2753 13.7001 15.8753C14.0001 15.0753 14.3001 14.2754 14.6001 13.5754C14.7001 13.2754 14.8001 12.9754 15.1001 12.7754C15.3001 12.5754 15.6001 12.5754 15.9001 12.5754C16.4001 12.5754 16.9001 12.6754 17.3001 12.9754C17.5001 13.0754 17.7001 13.1753 17.9001 13.3753C18.0001 13.4753 18.1001 13.5754 18.1001 13.7754C18.2001 13.9754 18.1001 14.2754 18.0001 14.4754C17.8001 15.5754 17.1001 16.4754 16.6001 17.3753C15.4001 19.8753 14.2001 22.2754 13.1001 24.8753C12.7001 25.8753 12.3001 26.9754 11.8001 27.9754C11.7001 28.2754 11.5001 28.6753 11.2001 28.7753C10.7001 29.0753 9.60012 28.8754 9.10012 28.4754Z" fill="#004ECC"/>
<path d="M58.2001 32.5753C57.8001 32.3753 57.7001 32.0753 57.8001 31.7753C58.0001 31.2753 58.2001 30.7753 58.6001 30.2753C58.9001 29.7753 59.3001 29.3753 59.7001 28.9753C59.8001 28.8753 59.8001 28.8753 59.9001 28.7753C59.9001 28.7753 59.8001 28.7754 59.8001 28.6754C59.5001 28.4754 59.5001 28.2754 59.6001 28.0754C59.7001 27.9754 59.8001 27.8753 60.0001 27.9753C60.1001 27.9753 60.2001 28.0753 60.5001 28.2753C61.1001 28.6753 61.6001 29.2753 61.9001 29.9753C62.2001 30.5753 62.3001 31.1753 62.0001 31.7753C61.9001 31.9753 61.8001 32.0753 61.7001 32.2753C61.2001 32.8753 60.4001 33.1754 59.4001 33.1754C59.0001 32.9754 58.6001 32.7753 58.2001 32.5753ZM58.8001 31.9753C59.8001 32.2753 60.5001 32.0753 61.0001 31.3753C61.1001 31.2753 61.1001 31.2754 61.1001 31.1754C61.3001 30.8754 61.3001 30.4754 61.1001 30.0754C61.0001 29.7754 60.8001 29.4754 60.5001 29.1754C60.1001 29.5754 59.8001 29.9753 59.5001 30.4753C59.3001 30.9753 59.0001 31.4753 58.8001 31.9753Z" fill="#004ECC"/>
<path d="M66.7001 36.7753C65.6001 36.6753 64.6001 35.7754 64.0001 34.3754C63.8001 33.9754 63.7001 33.5753 63.6001 33.2753C63.4001 33.2753 63.3001 33.2753 63.1001 33.2753C63.0001 33.7753 63.0001 34.0753 62.9001 34.5753C62.9001 34.6753 62.9001 34.6753 62.9001 34.7753C62.9001 34.8753 62.8001 34.9753 62.7001 34.9753C62.6001 34.9753 62.5001 34.9753 62.3001 34.9753C62.0001 34.8753 61.9001 34.6754 61.9001 34.3754C62.1001 33.1754 62.4001 32.1753 62.7001 31.2753C62.8001 30.8753 63.0001 30.5754 63.2001 30.1754C63.0001 30.0754 62.9001 29.9753 62.8001 29.8753C62.7001 29.7753 62.7001 29.6754 62.8001 29.5754C62.9001 29.2754 63.3001 29.2754 63.9001 29.5754C64.4001 29.7754 64.8001 29.9753 65.2001 30.3753C65.4001 30.5753 65.6001 30.7754 65.7001 31.0754C65.8001 31.3754 65.8001 31.5753 65.8001 31.7753C65.8001 31.9753 65.6001 32.2753 65.4001 32.4753C65.2001 32.6753 64.8001 32.8753 64.4001 33.0753C64.5001 33.4753 64.6001 33.8753 64.9001 34.2753C65.5001 35.3753 66.1001 35.9753 66.7001 36.0753C67.1001 36.0753 67.5001 36.0754 67.8001 35.8754C68.0001 35.7754 68.2001 35.6754 68.3001 35.6754C68.4001 35.6754 68.6001 35.7753 68.6001 35.7753C68.7001 35.8753 68.7001 35.9753 68.7001 36.0753C68.7001 36.1753 68.6001 36.3753 68.4001 36.4753C68.1001 36.6753 67.5001 36.8753 66.7001 36.7753ZM63.4001 32.4753C63.8001 32.4753 64.1001 32.4753 64.4001 32.2753C64.9001 32.0753 65.1001 31.8754 65.2001 31.6754C65.2001 31.4754 65.2001 31.2754 65.0001 31.0754C64.8001 30.8754 64.5001 30.6754 64.2001 30.5754C64.0001 30.8754 63.9001 31.1754 63.8001 31.5754C63.5001 31.8754 63.5001 32.0753 63.4001 32.4753ZM66.8001 35.1754C66.4001 35.0754 66.1001 34.9754 66.2001 34.6754C66.2001 34.5754 66.4001 34.4753 66.6001 34.4753C66.7001 34.4753 66.8001 34.4753 66.9001 34.4753C66.9001 33.7753 66.9001 33.0754 67.0001 32.3754C67.0001 32.0754 67.1001 31.7753 67.2001 31.4753C67.1001 31.4753 67.1001 31.4753 67.0001 31.4753C66.8001 31.3753 66.7001 31.2754 66.7001 30.9754C66.7001 30.8754 66.8001 30.7753 66.8001 30.7753C66.9001 30.6753 67.0001 30.6754 67.1001 30.6754C67.9001 30.7754 68.3001 30.7753 68.4001 30.8753C68.6001 30.9753 68.6001 31.0753 68.6001 31.2753C68.6001 31.3753 68.6001 31.3753 68.5001 31.4753C68.4001 31.5753 68.2001 31.5754 68.0001 31.5754C68.0001 31.5754 68.0001 31.5754 67.9001 31.5754C67.9001 31.8754 67.8001 32.1753 67.8001 32.4753C67.7001 33.1753 67.8001 33.7754 67.8001 34.3754C68.0001 34.3754 68.1001 34.3754 68.2001 34.3754C68.4001 34.3754 68.6001 34.4754 68.6001 34.6754V34.7753C68.6001 34.9753 68.5001 35.0753 68.2001 35.0753C67.5001 35.1753 67.0001 35.1754 66.8001 35.1754Z" fill="#004ECC"/>
<path d="M70.2001 35.9753C70.0001 35.9753 69.9001 35.8753 69.7001 35.7753C69.6001 35.6753 69.6001 35.5753 69.6001 35.4753C69.4001 34.7753 69.3001 34.0753 69.3001 33.2753C69.3001 32.9753 69.3001 32.3754 69.4001 31.5754C69.3001 31.5754 69.2001 31.5754 69.2001 31.4754C69.0001 31.3754 69.0001 31.2754 69.0001 31.1754C69.0001 30.9754 69.1001 30.8753 69.4001 30.7753C69.7001 30.6753 70.1001 30.6754 70.4001 30.5754C71.3001 30.4754 71.9001 30.5753 72.4001 30.8753C72.7001 31.0753 72.9001 31.3754 72.9001 31.6754C72.9001 31.7754 72.9001 31.9753 72.9001 32.0753C72.8001 32.6753 72.5001 33.1754 72.0001 33.6754C71.6001 33.9754 71.1001 34.2754 70.5001 34.4754C70.6001 34.7754 70.7001 35.0753 70.8001 35.2753V35.3754C70.8001 35.5754 70.7001 35.6753 70.5001 35.7753C70.4001 35.9753 70.3001 35.9753 70.2001 35.9753ZM70.3001 33.7753C71.0001 33.5753 71.5001 33.2753 71.8001 32.7753C72.0001 32.4753 72.0001 32.1754 72.0001 31.9754C72.0001 31.7754 71.8001 31.5754 71.4001 31.4754C71.2001 31.3754 70.9001 31.3754 70.6001 31.4754C70.5001 31.4754 70.4001 31.4754 70.3001 31.4754C70.2001 32.0754 70.2001 32.5754 70.2001 33.1754C70.2001 33.4754 70.3001 33.5753 70.3001 33.7753Z" fill="#004ECC"/>
</svg>
